<?xml version="1.0" encoding="UTF-8"?> <!-- Generator: Adobe Illustrator 24.2.0, SVG Export Plug-In . SVG Version: 6.00 Build 0) --> <svg xmlns="http://www.w3.org/2000/svg" xmlns:xlink="http://www.w3.org/1999/xlink" version="1.1" id="Layer_1" x="0px" y="0px" viewBox="0 0 169 283.9" style="enable-background:new 0 0 169 283.9;" xml:space="preserve"> <style type="text/css"> .st0{fill:url(#SVGID_1_);} .st1{fill:url(#SVGID_2_);} .st2{fill:url(#SVGID_3_);} .st3{fill:url(#SVGID_4_);} </style> <g> <linearGradient id="SVGID_1_" gradientUnits="userSpaceOnUse" x1="61.0985" y1="481.8693" x2="61.0985" y2="638.235" gradientTransform="matrix(1 0 0 1 0 -467.5143)"> <stop offset="0" style="stop-color:#9E6C48"></stop> <stop offset="3.924260e-02" style="stop-color:#C29072"></stop> <stop offset="7.170884e-02" style="stop-color:#D9A78E"></stop> <stop offset="9.054490e-02" style="stop-color:#E2B098"></stop> <stop offset="0.2096" style="stop-color:#F4D0BF"></stop> <stop offset="0.2773" style="stop-color:#FCDED0"></stop> <stop offset="0.2838" style="stop-color:#F6D6C7"></stop> <stop offset="0.3141" style="stop-color:#DBB6A1"></stop> <stop offset="0.3457" style="stop-color:#C59C82"></stop> <stop offset="0.3785" style="stop-color:#B4876A"></stop> <stop offset="0.413" style="stop-color:#A87858"></stop> <stop offset="0.4503" style="stop-color:#A0704E"></stop> <stop offset="0.4957" style="stop-color:#9E6D4B"></stop> <stop offset="0.5513" style="stop-color:#A47453"></stop> <stop offset="0.6376" style="stop-color:#B58869"></stop> <stop offset="0.6855" style="stop-color:#C09578"></stop> <stop offset="0.688" style="stop-color:#C2987B"></stop> <stop offset="0.7189" style="stop-color:#DBB6A1"></stop> <stop offset="0.7475" style="stop-color:#EDCDBD"></stop> <stop offset="0.7727" style="stop-color:#F8DACD"></stop> <stop offset="0.7918" style="stop-color:#FCDFD3"></stop> <stop offset="0.8205" style="stop-color:#E5C2B0"></stop> <stop offset="0.863" style="stop-color:#C69D84"></stop> <stop offset="0.9009" style="stop-color:#B08263"></stop> <stop offset="0.9326" style="stop-color:#A3724F"></stop> <stop offset="0.9541" style="stop-color:#9E6C48"></stop> </linearGradient> <path class="st0" d="M25.7,85.8c0,0-1.4-61.2-0.9-68.1c5.4,47.9,19.5,82.6,19.5,82.6l-0.9-66.2c0,0,5,43.8,16.7,76.8 s25.4,41.2,34.2,41.9s21.2-3.4,21.2-3.4s-24.4,34.7-57.8,31.3s-42.1-51.6-45.9-77.2C6.4,67.3,6.7,6.2,6.7,6.2s11.8,63.1,19,79"></path> <linearGradient id="SVGID_2_" gradientUnits="userSpaceOnUse" x1="102.8757" y1="729.0253" x2="102.8757" y2="488.7253" gradientTransform="matrix(1 0 0 1 0 -467.5143)"> <stop offset="0.1695" style="stop-color:#AA815E"></stop> <stop offset="0.1933" style="stop-color:#C09B7E"></stop> <stop offset="0.2311" style="stop-color:#E0BFAB"></stop> <stop offset="0.2603" style="stop-color:#F4D6C7"></stop> <stop offset="0.2773" style="stop-color:#FBDED1"></stop> <stop offset="0.2829" style="stop-color:#F3D4C5"></stop> <stop offset="0.3028" style="stop-color:#D9B49F"></stop> <stop offset="0.3236" style="stop-color:#C39A80"></stop> <stop offset="0.3452" style="stop-color:#B38668"></stop> <stop offset="0.3679" style="stop-color:#A77756"></stop> <stop offset="0.3924" style="stop-color:#A06F4C"></stop> <stop offset="0.4223" style="stop-color:#9E6C49"></stop> <stop offset="0.4875" style="stop-color:#A47351"></stop> <stop offset="0.5886" style="stop-color:#B38767"></stop> <stop offset="0.6855" style="stop-color:#C79F82"></stop> <stop offset="0.7123" style="stop-color:#DAB69F"></stop> <stop offset="0.7434" style="stop-color:#ECCCBB"></stop> <stop offset="0.7709" style="stop-color:#F7D9CB"></stop> <stop offset="0.7918" style="stop-color:#FBDED1"></stop> <stop offset="0.8048" style="stop-color:#E5C3B0"></stop> <stop offset="0.8251" style="stop-color:#C69E84"></stop> <stop offset="0.8433" style="stop-color:#B08363"></stop> <stop offset="0.8584" style="stop-color:#A3724F"></stop> <stop offset="0.8687" style="stop-color:#9E6C48"></stop> </linearGradient> <path class="st1" d="M47.6,188.2c0,0,27.3,3.6,47-9.4s32.4-32.2,41.4-55.9s19.2-61.8,21-89.9c3.6,52.4-1.2,109.7-15,144.8 c-14.6,37.2-51.5,80.1-63.3,95.5c8.5-18.4,3.2-43.9-6-57.9C63.2,200.9,47.6,188.2,47.6,188.2z"></path> <linearGradient id="SVGID_3_" gradientUnits="userSpaceOnUse" x1="-23.2495" y1="558.804" x2="90.6634" y2="644.6434" gradientTransform="matrix(1 0 0 1 0 -467.5143)"> <stop offset="0.4957" style="stop-color:#9E6D4B"></stop> <stop offset="0.5513" style="stop-color:#A47453"></stop> <stop offset="0.6376" style="stop-color:#B58869"></stop> <stop offset="0.6855" style="stop-color:#C09578"></stop> <stop offset="0.688" style="stop-color:#C2987B"></stop> <stop offset="0.7189" style="stop-color:#DBB6A1"></stop> <stop offset="0.7475" style="stop-color:#EDCDBD"></stop> <stop offset="0.7727" style="stop-color:#F8DACD"></stop> <stop offset="0.7918" style="stop-color:#FCDFD3"></stop> <stop offset="0.8205" style="stop-color:#E5C2B0"></stop> <stop offset="0.863" style="stop-color:#C69D84"></stop> <stop offset="0.9009" style="stop-color:#B08263"></stop> <stop offset="0.9326" style="stop-color:#A3724F"></stop> <stop offset="0.9541" style="stop-color:#9E6C48"></stop> </linearGradient> <path class="st2" d="M19,124.2c-3.5-8.3-6.1-17-7.9-24c0.1,1.1,0.3,2.1,0.5,3.2c3.8,25.6,12.5,73.8,45.9,77.2 c23.5,2.4,42.6-14,51.8-24c-6.8,6.8-20.3,17-39.8,16.8C40.2,173,26.6,142.1,19,124.2z"></path> <linearGradient id="SVGID_4_" gradientUnits="userSpaceOnUse" x1="41.4588" y1="691.3936" x2="195.3412" y2="575.4349" gradientTransform="matrix(1 0 0 1 0 -467.5143)"> <stop offset="0.1695" style="stop-color:#AA815E"></stop> <stop offset="0.1933" style="stop-color:#C09B7E"></stop> <stop offset="0.2311" style="stop-color:#E0BFAB"></stop> <stop offset="0.2603" style="stop-color:#F4D6C7"></stop> <stop offset="0.2773" style="stop-color:#FBDED1"></stop> <stop offset="0.2829" style="stop-color:#F3D4C5"></stop> <stop offset="0.3028" style="stop-color:#D9B49F"></stop> <stop offset="0.3236" style="stop-color:#C39A80"></stop> <stop offset="0.3452" style="stop-color:#B38668"></stop> <stop offset="0.3679" style="stop-color:#A77756"></stop> <stop offset="0.3924" style="stop-color:#A06F4C"></stop> <stop offset="0.4223" style="stop-color:#9E6C49"></stop> <stop offset="0.4875" style="stop-color:#A47351"></stop> <stop offset="0.5886" style="stop-color:#B38767"></stop> <stop offset="0.6855" style="stop-color:#C79F82"></stop> <stop offset="0.7123" style="stop-color:#DAB69F"></stop> <stop offset="0.7434" style="stop-color:#ECCCBB"></stop> <stop offset="0.7709" style="stop-color:#F7D9CB"></stop> <stop offset="0.7918" style="stop-color:#FBDED1"></stop> <stop offset="0.8048" style="stop-color:#E5C3B0"></stop> <stop offset="0.8251" style="stop-color:#C69E84"></stop> <stop offset="0.8433" style="stop-color:#B08363"></stop> <stop offset="0.8584" style="stop-color:#A3724F"></stop> <stop offset="0.8687" style="stop-color:#9E6C48"></stop> </linearGradient> <path class="st3" d="M142,177.9c11.6-29.5,16.8-74.6,16.1-119.4c-2.4,32.9-9.1,60.2-12.8,75.1c-4,15.7-20.1,48.3-29.1,63.1 c-8,13.1-24.9,32-34.7,40.9c2.5,11.8,2.2,25-2.8,35.7C90.5,258,127.3,215.2,142,177.9z"></path> </g> </svg> 